<svg xmlns="http://www.w3.org/2000/svg" width="16" height="16" viewBox="0 0 16 16" fill="none">
  <g clip-path="url(#clip0_219_552)">
    <path d="M12.3554 2.8336C12.5074 3.20112 12.7991 3.49324 13.1664 3.64576L14.4542 4.17922C14.8218 4.33146 15.1138 4.62347 15.266 4.99101C15.4183 5.35855 15.4183 5.77152 15.266 6.13906L14.733 7.42603C14.5807 7.79373 14.5804 8.20711 14.7334 8.57464L15.2656 9.86122C15.3411 10.0433 15.3799 10.2384 15.38 10.4355C15.38 10.6325 15.3412 10.8277 15.2658 11.0097C15.1904 11.1918 15.0798 11.3572 14.9404 11.4965C14.8011 11.6358 14.6356 11.7463 14.4535 11.8217L13.1666 12.3548C12.7991 12.5067 12.5069 12.7984 12.3544 13.1657L11.821 14.4536C11.6687 14.8211 11.3767 15.1131 11.0092 15.2654C10.6416 15.4176 10.2287 15.4176 9.86112 15.2654L8.57415 14.7323C8.2066 14.5804 7.79378 14.5808 7.42646 14.7332L6.13857 15.2659C5.77123 15.4178 5.35863 15.4176 4.99138 15.2655C4.62414 15.1134 4.33229 14.8217 4.17995 14.4546L3.64633 13.1663C3.49437 12.7988 3.20268 12.5067 2.8354 12.3542L1.54751 11.8207C1.18013 11.6685 0.888202 11.3767 0.735904 11.0094C0.583607 10.642 0.5834 10.2293 0.73533 9.86178L1.26841 8.57481C1.42027 8.20726 1.41996 7.79444 1.26755 7.42712L0.735233 6.13831C0.659761 5.95627 0.6209 5.76114 0.620868 5.56408C0.620836 5.36701 0.659636 5.17187 0.735049 4.98981C0.810462 4.80775 0.92101 4.64233 1.06038 4.50301C1.19975 4.36368 1.3652 4.25319 1.54729 4.17783L2.83425 3.64476C3.20144 3.49293 3.4934 3.20161 3.64602 2.83475L4.17948 1.54686C4.33172 1.17932 4.62373 0.887307 4.99128 0.735066C5.35882 0.582825 5.77178 0.582825 6.13933 0.735066L7.42629 1.26814C7.79384 1.42001 8.20666 1.4197 8.57398 1.26728L9.86241 0.735892C10.2299 0.583737 10.6428 0.583768 11.0103 0.735979C11.3777 0.88819 11.6697 1.18012 11.822 1.54756L12.3556 2.83583L12.3554 2.8336Z" fill="#2E90FA"/>
    <path fill-rule="evenodd" clip-rule="evenodd" d="M11.1333 5.90291C11.2401 5.73503 11.276 5.53157 11.2328 5.33728C11.1897 5.14299 11.0711 4.9738 10.9033 4.86691C10.7354 4.76003 10.5319 4.72422 10.3376 4.76735C10.1433 4.81048 9.97414 4.92903 9.86726 5.09691L6.93026 9.71191L5.58626 8.03191C5.46201 7.8765 5.2811 7.7768 5.08335 7.75477C4.88559 7.73273 4.68718 7.79016 4.53176 7.91441C4.37634 8.03867 4.27665 8.21957 4.25462 8.41733C4.23258 8.61508 4.29001 8.8135 4.41426 8.96891L6.41426 11.4689C6.4888 11.5622 6.58453 11.6363 6.6935 11.6852C6.80246 11.734 6.92152 11.7561 7.04075 11.7497C7.15998 11.7432 7.27595 11.7084 7.37901 11.6481C7.48207 11.5877 7.56923 11.5037 7.63326 11.4029L11.1333 5.90291Z" fill="white"/>
  </g>
  <defs>
    <clipPath id="clip0_219_552">
      <rect width="16" height="16" fill="white"/>
    </clipPath>
  </defs>
</svg>