<svg width="32" height="33" viewBox="0 0 32 33" fill="none" xmlns="http://www.w3.org/2000/svg">
<path fill-rule="evenodd" clip-rule="evenodd" d="M16 2.53882C8.28948 2.53882 2.03885 8.78945 2.03885 16.5C2.03885 24.2105 8.28948 30.4612 16 30.4612C23.7106 30.4612 29.9612 24.2105 29.9612 16.5C29.9612 8.78945 23.7106 2.53882 16 2.53882ZM1.96118 16.5C1.96118 8.74655 8.24658 2.46115 16 2.46115C23.7535 2.46115 30.0389 8.74655 30.0389 16.5C30.0389 24.2534 23.7535 30.5388 16 30.5388C8.24658 30.5388 1.96118 24.2534 1.96118 16.5Z" fill="#D0D5DD"/>
<path fill-rule="evenodd" clip-rule="evenodd" d="M16 12.5779C13.8338 12.5779 12.0777 14.334 12.0777 16.5002C12.0777 18.6665 13.8338 20.4225 16 20.4225C18.1662 20.4225 19.9223 18.6665 19.9223 16.5002C19.9223 14.334 18.1662 12.5779 16 12.5779ZM12 16.5002C12 14.2911 13.7909 12.5002 16 12.5002C18.2091 12.5002 20 14.2911 20 16.5002C20 18.7094 18.2091 20.5002 16 20.5002C13.7909 20.5002 12 18.7094 12 16.5002Z" fill="#D0D5DD"/>
<path fill-rule="evenodd" clip-rule="evenodd" d="M16 13.8201C14.52 13.8201 13.3203 15.0198 13.3203 16.4997C13.3203 17.9796 14.52 19.1793 16 19.1793C17.4799 19.1793 18.6796 17.9796 18.6796 16.4997C18.6796 15.0198 17.4799 13.8201 16 13.8201ZM13.2427 16.4997C13.2427 14.9769 14.4772 13.7424 16 13.7424C17.5228 13.7424 18.7572 14.9769 18.7572 16.4997C18.7572 18.0225 17.5228 19.257 16 19.257C14.4772 19.257 13.2427 18.0225 13.2427 16.4997Z" fill="#D0D5DD"/>
<path d="M15.9612 0.5H16.0389V32.5H15.9612V0.5Z" fill="#D0D5DD"/>
<path d="M32 16.4609L32 16.5386L-3.39506e-09 16.5386L0 16.4609L32 16.4609Z" fill="#D0D5DD"/>
<path d="M26.6019 0.5H26.6796V32.5H26.6019V0.5Z" fill="#D0D5DD"/>
<path d="M10.6407 0.5H10.7184V32.5H10.6407V0.5Z" fill="#D0D5DD"/>
<path d="M21.2815 0.5H21.3592V32.5H21.2815V0.5Z" fill="#D0D5DD"/>
<path d="M5.32031 0.5H5.39798V32.5H5.32031V0.5Z" fill="#D0D5DD"/>
<path d="M32 27.1016L32 27.1792L-3.39506e-09 27.1792L0 27.1016L32 27.1016Z" fill="#D0D5DD"/>
<path d="M32 11.1406L32 11.2183L-3.39506e-09 11.2183L0 11.1406L32 11.1406Z" fill="#D0D5DD"/>
<path d="M32 21.7812L32 21.8589L-3.39506e-09 21.8589L0 21.7812L32 21.7812Z" fill="#D0D5DD"/>
<path d="M32 5.82031L32 5.89798L-3.39506e-09 5.89798L0 5.82031L32 5.82031Z" fill="#D0D5DD"/>
</svg>
