<svg width="40" height="39" viewBox="0 0 40 39" fill="none" xmlns="http://www.w3.org/2000/svg">
<path d="M0 8.5C0 5.18629 2.68629 2.5 6 2.5H34C37.3137 2.5 40 5.18629 40 8.5V32.5C40 35.8137 37.3137 38.5 34 38.5H6C2.68629 38.5 0 35.8137 0 32.5V8.5Z" fill="#FFF"/>
<path d="M17.7952 28C18.3828 28.5186 19.1547 28.8333 20.0001 28.8333C20.8454 28.8333 21.6173 28.5186 22.2049 28M25.0001 17.1667C25.0001 15.8406 24.4733 14.5688 23.5356 13.6311C22.5979 12.6934 21.3261 12.1667 20.0001 12.1667C18.674 12.1667 17.4022 12.6934 16.4645 13.6311C15.5268 14.5688 15.0001 15.8406 15.0001 17.1667C15.0001 19.7418 14.3504 21.505 13.6248 22.6712C13.0127 23.6549 12.7066 24.1467 12.7178 24.284C12.7303 24.4359 12.7624 24.4938 12.8849 24.5846C12.9954 24.6667 13.4939 24.6667 14.4908 24.6667H25.5093C26.5062 24.6667 27.0047 24.6667 27.1152 24.5846C27.2377 24.4938 27.2699 24.4359 27.2823 24.284C27.2935 24.1467 26.9875 23.6549 26.3753 22.6712C25.6497 21.505 25.0001 19.7418 25.0001 17.1667Z" stroke="#94969C" stroke-width="1.66667" stroke-linecap="round" stroke-linejoin="round"/>
<path d="M17 10C17 4.47715 21.4772 0 27 0H28C33.5228 0 38 4.47715 38 10C38 15.5228 33.5228 20 28 20H27C21.4772 20 17 15.5228 17 10Z" fill="#C50F1F"/>
<path d="M24.2374 14.0994C23.7497 14.0994 23.3141 14.0154 22.9306 13.8473C22.5494 13.6792 22.2476 13.446 22.025 13.1477C21.8049 12.8471 21.6865 12.4991 21.6699 12.1037H22.785C22.7992 12.3191 22.8714 12.5062 23.0016 12.6648C23.1342 12.821 23.307 12.9418 23.5201 13.027C23.7331 13.1122 23.9699 13.1548 24.2303 13.1548C24.5167 13.1548 24.7701 13.1051 24.9902 13.0057C25.2128 12.9062 25.3868 12.7678 25.5123 12.5902C25.6377 12.4103 25.7005 12.2031 25.7005 11.9688C25.7005 11.7249 25.6377 11.5107 25.5123 11.326C25.3891 11.139 25.208 10.9922 24.9689 10.8857C24.7322 10.7791 24.4457 10.7259 24.1096 10.7259H23.4952V9.83097H24.1096C24.3794 9.83097 24.6162 9.78243 24.8198 9.68537C25.0257 9.5883 25.1867 9.45336 25.3027 9.28054C25.4187 9.10535 25.4767 8.90057 25.4767 8.66619C25.4767 8.44129 25.4258 8.24598 25.324 8.08026C25.2246 7.91217 25.0826 7.78078 24.8979 7.68608C24.7156 7.59138 24.5002 7.54403 24.2516 7.54403C24.0149 7.54403 23.7935 7.58783 23.5875 7.67543C23.3839 7.76065 23.2182 7.88376 23.0904 8.04474C22.9625 8.20336 22.8939 8.39394 22.8844 8.61648H21.8226C21.8345 8.22348 21.9505 7.87784 22.1706 7.57955C22.3932 7.28125 22.6867 7.04806 23.0513 6.87997C23.4159 6.71188 23.8207 6.62784 24.2658 6.62784C24.7322 6.62784 25.1346 6.71899 25.4732 6.90128C25.8141 7.0812 26.0769 7.3215 26.2615 7.62216C26.4486 7.92282 26.5409 8.25189 26.5385 8.60938C26.5409 9.01657 26.4273 9.36222 26.1976 9.64631C25.9703 9.9304 25.6673 10.121 25.2885 10.218V10.2749C25.7715 10.3482 26.1455 10.54 26.4107 10.8501C26.6782 11.1603 26.8108 11.545 26.8084 12.0043C26.8108 12.4044 26.6995 12.763 26.4746 13.0803C26.2521 13.3975 25.9479 13.6473 25.562 13.8295C25.1761 14.0095 24.7346 14.0994 24.2374 14.0994ZM27.998 12.5795V11.6918L31.1408 6.72727H31.8404V8.03409H31.3965L29.1486 11.5923V11.6491H33.4561V12.5795H27.998ZM31.4462 14V12.3097L31.4533 11.9048V6.72727H32.4938V14H31.4462Z" fill="white"/>
</svg>
