<svg width="20" height="21" viewBox="0 0 20 21" fill="none" xmlns="http://www.w3.org/2000/svg">
<path d="M9.99996 13C11.3807 13 12.5 11.8807 12.5 10.5C12.5 9.11928 11.3807 7.99999 9.99996 7.99999C8.61925 7.99999 7.49996 9.11928 7.49996 10.5C7.49996 11.8807 8.61925 13 9.99996 13Z" stroke="#94969C" stroke-width="1.66667" stroke-linecap="round" stroke-linejoin="round"/>
<path d="M15.606 12.7727C15.5052 13.0012 15.4751 13.2547 15.5197 13.5004C15.5642 13.7462 15.6814 13.973 15.856 14.1515L15.9015 14.197C16.0423 14.3377 16.1541 14.5048 16.2304 14.6887C16.3066 14.8727 16.3458 15.0698 16.3458 15.2689C16.3458 15.468 16.3066 15.6652 16.2304 15.8491C16.1541 16.0331 16.0423 16.2002 15.9015 16.3409C15.7608 16.4818 15.5937 16.5935 15.4097 16.6698C15.2258 16.746 15.0286 16.7853 14.8295 16.7853C14.6304 16.7853 14.4332 16.746 14.2493 16.6698C14.0654 16.5935 13.8983 16.4818 13.7575 16.3409L13.7121 16.2954C13.5335 16.1208 13.3068 16.0036 13.061 15.9591C12.8153 15.9145 12.5618 15.9446 12.3333 16.0454C12.1092 16.1415 11.9181 16.3009 11.7835 16.5042C11.6489 16.7074 11.5767 16.9456 11.5757 17.1894V17.3182C11.5757 17.72 11.4161 18.1054 11.1319 18.3895C10.8478 18.6737 10.4624 18.8333 10.0606 18.8333C9.65872 18.8333 9.27334 18.6737 8.98919 18.3895C8.70505 18.1054 8.54541 17.72 8.54541 17.3182V17.25C8.53955 16.9992 8.45838 16.756 8.31247 16.552C8.16655 16.348 7.96264 16.1926 7.72723 16.1061C7.49874 16.0052 7.24527 15.9751 6.99951 16.0197C6.75376 16.0642 6.52699 16.1814 6.34844 16.3561L6.30299 16.4015C6.16227 16.5424 5.99517 16.6541 5.81123 16.7304C5.6273 16.8066 5.43013 16.8459 5.23102 16.8459C5.03191 16.8459 4.83474 16.8066 4.65081 16.7304C4.46687 16.6541 4.29977 16.5424 4.15905 16.4015C4.01818 16.2608 3.90642 16.0937 3.83017 15.9097C3.75392 15.7258 3.71468 15.5287 3.71468 15.3295C3.71468 15.1304 3.75392 14.9333 3.83017 14.7493C3.90642 14.5654 4.01818 14.3983 4.15905 14.2576L4.2045 14.2121C4.37915 14.0336 4.49631 13.8068 4.54087 13.561C4.58543 13.3153 4.55535 13.0618 4.4545 12.8333C4.35847 12.6093 4.19902 12.4182 3.99577 12.2836C3.79252 12.149 3.55434 12.0767 3.31057 12.0757H3.18178C2.77993 12.0757 2.39455 11.9161 2.1104 11.632C1.82626 11.3478 1.66663 10.9624 1.66663 10.5606C1.66663 10.1588 1.82626 9.77337 2.1104 9.48922C2.39455 9.20508 2.77993 9.04544 3.18178 9.04544H3.24996C3.50071 9.03958 3.7439 8.95841 3.94791 8.8125C4.15192 8.66658 4.30732 8.46267 4.3939 8.22726C4.49474 7.99877 4.52483 7.7453 4.48027 7.49954C4.43571 7.25379 4.31855 7.02702 4.1439 6.84847L4.09844 6.80302C3.95757 6.6623 3.84581 6.4952 3.76957 6.31126C3.69332 6.12733 3.65407 5.93016 3.65407 5.73105C3.65407 5.53194 3.69332 5.33477 3.76957 5.15084C3.84581 4.9669 3.95757 4.7998 4.09844 4.65908C4.23916 4.51821 4.40627 4.40645 4.5902 4.3302C4.77414 4.25395 4.9713 4.21471 5.17041 4.21471C5.36953 4.21471 5.56669 4.25395 5.75063 4.3302C5.93456 4.40645 6.10167 4.51821 6.24238 4.65908L6.28784 4.70454C6.46638 4.87918 6.69315 4.99634 6.93891 5.0409C7.18466 5.08546 7.43813 5.05538 7.66663 4.95454H7.72723C7.9513 4.8585 8.1424 4.69905 8.277 4.4958C8.4116 4.29255 8.48384 4.05437 8.48481 3.8106V3.68181C8.48481 3.27996 8.64444 2.89458 8.92859 2.61043C9.21273 2.32629 9.59812 2.16666 9.99996 2.16666C10.4018 2.16666 10.7872 2.32629 11.0713 2.61043C11.3555 2.89458 11.5151 3.27996 11.5151 3.68181V3.74999C11.5161 3.99377 11.5883 4.23194 11.7229 4.43519C11.8575 4.63844 12.0486 4.7979 12.2727 4.89393C12.5012 4.99477 12.7547 5.02486 13.0004 4.9803C13.2462 4.93574 13.4729 4.81858 13.6515 4.64393L13.6969 4.59847C13.8376 4.4576 14.0048 4.34585 14.1887 4.2696C14.3726 4.19335 14.5698 4.1541 14.7689 4.1541C14.968 4.1541 15.1652 4.19335 15.3491 4.2696C15.533 4.34585 15.7002 4.4576 15.8409 4.59847C15.9817 4.73919 16.0935 4.9063 16.1697 5.09023C16.246 5.27417 16.2852 5.47133 16.2852 5.67044C16.2852 5.86956 16.246 6.06672 16.1697 6.25066C16.0935 6.43459 15.9817 6.6017 15.8409 6.74241L15.7954 6.78787C15.6208 6.96641 15.5036 7.19318 15.459 7.43894C15.4145 7.68469 15.4446 7.93816 15.5454 8.16666V8.22726C15.6414 8.45133 15.8009 8.64243 16.0042 8.77703C16.2074 8.91163 16.4456 8.98387 16.6894 8.98484H16.8181C17.22 8.98484 17.6054 9.14447 17.8895 9.42862C18.1737 9.71276 18.3333 10.0981 18.3333 10.5C18.3333 10.9018 18.1737 11.2872 17.8895 11.5714C17.6054 11.8555 17.22 12.0151 16.8181 12.0151H16.75C16.5062 12.0161 16.268 12.0883 16.0648 12.223C15.8615 12.3576 15.7021 12.5487 15.606 12.7727Z" stroke="#94969C" stroke-width="1.66667" stroke-linecap="round" stroke-linejoin="round"/>
</svg>
